<svg xmlns="http://www.w3.org/2000/svg" viewBox="0 0 100 14.4"><path d="M6 2.5c0-1.2.1-1.3 2.3-1.3 2.5 0 4.8.6 4.8 2.6 0 2.9-3.9 2.9-6.2 2.9H6V2.5zM3.3 14.2H6V7.3h1.6l6.4 6.8h3.2l-6.5-7c2.8-.2 5.6-.9 5.6-3.3C16.3.8 13 .3 9.1.3H0v.4c2.7.3 3.3.3 3.3 1.8v11.7zM19.6 2.7c-.5-1.6-.8-1.7-3.3-2.1V.3h5.4l3.5 11.3h.1L30.4.3h2.7l5.1 10.8h.1L41.8.3h1.7l-4.7 14.1H37L31.2 2h-.1l-5.5 12.3h-2.3L19.6 2.7zm59.9 11.1c-1.5.3-3.1.6-6 .6-6 0-9.3-3.4-9.3-7.7C64.2 3 66.1 0 72.7 0c4.9 0 6.6 1.6 6.8 3.1h-3.2c-.1-.7-.7-2.1-3.8-2.1-3.4 0-5.2 2.1-5.2 5.3 0 3 .9 7.3 7.9 7.3 1.9 0 3.9-.5 4.3-.5v.7zm10.1-.3c-5.1 0-5.3-3.7-5.3-6.3 0-2.9.4-6.4 5.3-6.4 5 0 5.2 3.7 5.2 6.4 0 2.8-.4 6.3-5.2 6.3zm0 .9c6.3 0 8.3-2.8 8.3-7.2C97.9 3.1 96 0 89.6 0s-8.4 2.8-8.4 7.2c-.1 4.1 1.8 7.2 8.4 7.2zm7.8-.8c0-.5.6-.8 1.2-.8.7 0 1.3.4 1.3.8 0 .5-.6.8-1.3.8-.6 0-1.2-.4-1.2-.8zm-42.2-3.4c-.7.6-1.8 1.2-3.6 1.2-2.1 0-3.3-1.1-3.3-2.2 0-.6.3-1.6 1.9-2l5 3zm5.4-4.4h-5.8l-1 .3v.3h2.3c.8.7.7 2.1 0 3l-4.7-2.9c-1.7-1.1-2.1-1.6-2.1-2.2 0-.8 1-1.2 1.7-1.2 1.2 0 1.8.4 2.2 1.3h.5V3.3c-.5-.3-1.3-.5-2.6-.5-2.4 0-3.6.9-3.6 2 0 1 1.1 1.5 2.2 2.2-2.5.3-3.7 1.2-3.7 2.4s1.5 2.6 5 2.6c2.2 0 3.7-.7 4.7-1.4.7.5 1.3.8 2.1 1.2h2.3v-.3c-.8-.3-2.6-1.3-3.5-1.9 1-1 .9-2.5.9-3.2h2.2l1-.3v-.3z"/></svg>